<svg viewBox="0 0 640 400" data-background-color="#06ab78" preserveAspectRatio="xMidYMid meet" height="400" width="640" xmlns="http://www.w3.org/2000/svg" xmlns:xlink="http://www.w3.org/1999/xlink"><rect width="640" height="400" x="0" y="0" opacity="1" fill="#06ab78" data-fill-palette-color="background" id="background"></rect><g id="tight-bounds" transform="matrix(1,0,0,1,122.24000000000001,89.25118507807485)"><svg viewBox="0 0 395.52 221.4976298438503" height="221.4976298438503" width="395.52"><g><svg viewBox="0 0 395.52 221.4976298438503" height="221.4976298438503" width="395.52"><g transform="matrix(1,0,0,1,0,136.89442128770054)"><svg viewBox="0 0 395.52 84.60320855614974" height="84.60320855614974" width="395.52"><g id="textblocktransform"><svg viewBox="0 0 395.52 84.60320855614974" height="84.60320855614974" width="395.52" id="textblock"><g><svg viewBox="0 0 395.52 84.60320855614974" height="84.60320855614974" width="395.52"><g transform="matrix(1,0,0,1,0,0)"><svg width="395.52" viewBox="2.25 -37.5 233.72999572753906 50" height="84.60320855614974" data-palette-color="#ffffff"><path d="M15-22.3L15-22.3Q10.75-22.3 8.13-19.48 5.5-16.65 5.5-11.55L5.5-11.55Q5.5-2.7 13.75-2.7L13.75-2.7Q16.95-2.7 19.1-3.23 21.25-3.75 21.45-3.9L21.45-3.9 22.15-1.55Q21-0.8 18.35-0.3 15.7 0.2 13.55 0.2 11.4 0.2 9.65-0.25 7.9-0.7 6.13-1.85 4.35-3 3.3-5.48 2.25-7.95 2.25-11.5L2.25-11.5Q2.25-18.05 5.6-21.4L5.6-21.4Q9.35-25.25 15.05-25.25L15.05-25.25Q16.85-25.25 18.88-24.78 20.9-24.3 22-23.3L22-23.3 22-16.75 19.55-16.4 19.3-21.65Q17.25-22.3 15-22.3ZM36.57 0.2Q31.35 0.2 28.12-2.8 24.9-5.8 24.9-11.98 24.9-18.15 28.32-21.68 31.75-25.2 36.95-25.2 42.15-25.2 45.4-22.2 48.65-19.2 48.65-13.03 48.65-6.85 45.22-3.33 41.8 0.2 36.57 0.2ZM36.87-22.3Q33.15-22.3 30.65-19.6 28.15-16.9 28.15-12.28 28.15-7.65 30.52-5.18 32.9-2.7 36.65-2.7 40.4-2.7 42.9-5.38 45.4-8.05 45.4-12.68 45.4-17.3 43-19.8 40.6-22.3 36.87-22.3ZM64.82 0.2Q59.6 0.2 56.37-2.8 53.15-5.8 53.15-11.98 53.15-18.15 56.57-21.68 60-25.2 65.2-25.2 70.4-25.2 73.65-22.2 76.9-19.2 76.9-13.03 76.9-6.85 73.47-3.33 70.05 0.2 64.82 0.2ZM65.12-22.3Q61.4-22.3 58.9-19.6 56.4-16.9 56.4-12.28 56.4-7.65 58.77-5.18 61.15-2.7 64.9-2.7 68.65-2.7 71.15-5.38 73.65-8.05 73.65-12.68 73.65-17.3 71.25-19.8 68.84-22.3 65.12-22.3ZM94.64-22.5L92.59-22.5 92.59-25 103.09-25 103.09-22.5 98.39-22.5 89.99-13.3 99.49-2.5 104.24-2.5 104.24 0 97.89 0 86.74-13.3 86.74-2.5 90.49-2.5 90.49 0 80.39 0 80.39-2.5 83.49-2.5 83.49-35 80.14-35 80.14-37.5 86.74-37.5 86.74-13.3 94.64-22.5ZM107.79-11.2L107.79-11.2Q107.79-6.75 110.34-4.73 112.89-2.7 116.29-2.7L116.29-2.7Q118.49-2.7 120.82-3.13 123.14-3.55 123.89-3.9L123.89-3.9 124.54-1.55Q123.39-0.8 120.77-0.3 118.14 0.2 115.97 0.2 113.79 0.2 112.07-0.25 110.34-0.7 108.54-1.85 106.74-3 105.69-5.45 104.64-7.9 104.64-11.45L104.64-11.45Q104.64-18.05 108.04-21.55L108.04-21.55Q111.59-25.2 116.29-25.2 120.99-25.2 123.47-22.6 125.94-20 125.94-15.3L125.94-15.3Q125.94-14.3 125.79-13.15L125.79-13.15 107.94-13.15Q107.79-12.1 107.79-11.2ZM122.94-15.65L122.94-15.65Q122.94-18.75 121.09-20.43 119.24-22.1 116.79-22.1L116.79-22.1Q113.44-22.1 111.24-20.08 109.04-18.05 108.29-15.1L108.29-15.1 122.94-15.1Q122.94-15.4 122.94-15.65ZM135.74-16.75L135.74-2.5 139.89-2.5 139.89 0 129.39 0 129.39-2.5 132.49-2.5 132.49-22.5 129.14-22.5 129.14-25 135.74-25 135.74-18.95Q139.69-24.75 143.49-24.85L143.49-24.85Q143.79-24.85 144.09-24.85L144.09-24.85 146.89-24.5 145.59-21.5Q144.64-21.95 143.14-21.95L143.14-21.95Q139.54-21.9 135.74-16.75L135.74-16.75ZM183.39 0L173.29 0 173.29-2.75 176.34-2.75 174.04-9.25 158.64-9.25 156.39-2.75 159.99-2.75 159.99 0 149.89 0 149.89-2.75 153.19-2.75 164.84-35 167.89-35 179.94-2.75 183.39-2.75 183.39 0ZM173.14-11.75L166.19-31.2 159.49-11.75 173.14-11.75ZM189.08-22.5L185.73-22.5 185.73-25 192.33-25 192.33-23.15Q195.48-25.45 199.03-25.45L199.03-25.45Q202.43-25.45 205.43-23.35L205.43-23.35Q207.03-22.2 208.01-19.75 208.98-17.3 208.98-13.8L208.98-13.8Q208.98-7.15 205.68-3.8L205.68-3.8Q201.93 0 195.98 0L195.98 0Q194.23 0 192.33-0.25L192.33-0.25 192.33 10 196.58 10 196.58 12.5 185.98 12.5 185.98 10 189.08 10 189.08-22.5ZM192.33-21.1L192.33-21.1 192.33-2.8Q193.78-2.45 195.48-2.45L195.48-2.45Q200.43-2.45 203.08-5.35 205.73-8.25 205.73-13.55L205.73-13.55Q205.73-19.7 202.13-21.6L202.13-21.6Q200.38-22.55 198.08-22.55 195.78-22.55 192.33-21.1ZM216.08-22.5L212.73-22.5 212.73-25 219.33-25 219.33-23.15Q222.48-25.45 226.03-25.45L226.03-25.45Q229.43-25.45 232.43-23.35L232.43-23.35Q234.03-22.2 235.01-19.75 235.98-17.3 235.98-13.8L235.98-13.8Q235.98-7.15 232.68-3.8L232.68-3.8Q228.93 0 222.98 0L222.98 0Q221.23 0 219.33-0.25L219.33-0.25 219.33 10 223.58 10 223.58 12.5 212.98 12.5 212.98 10 216.08 10 216.08-22.5ZM219.33-21.1L219.33-21.1 219.33-2.8Q220.78-2.45 222.48-2.45L222.48-2.45Q227.43-2.45 230.08-5.35 232.73-8.25 232.73-13.55L232.73-13.55Q232.73-19.7 229.13-21.6L229.13-21.6Q227.38-22.55 225.08-22.55 222.78-22.55 219.33-21.1Z" opacity="1" transform="matrix(1,0,0,1,0,0)" fill="#ffffff" class="wordmark-text-0" data-fill-palette-color="primary" id="text-0"></path></svg></g></svg></g></svg></g></svg></g><g transform="matrix(1,0,0,1,139.29918288770054,0)"><svg viewBox="0 0 116.92163422459892 116.92163422459893" height="116.92163422459893" width="116.92163422459892"><g><svg></svg></g><g id="icon-0"><svg viewBox="0 0 116.92163422459892 116.92163422459893" height="116.92163422459893" width="116.92163422459892"><g><path xmlns="http://www.w3.org/2000/svg" d="M35.076 116.922c-19.372 0-35.076-15.704-35.076-35.077v-46.769c0-19.372 15.704-35.076 35.076-35.076h46.769c19.372 0 35.076 15.704 35.077 35.076v46.769c0 19.372-15.704 35.076-35.077 35.077z" fill="#012635" fill-rule="nonzero" stroke="none" stroke-width="1" stroke-linecap="butt" stroke-linejoin="miter" stroke-miterlimit="10" stroke-dasharray="" stroke-dashoffset="0" font-family="none" font-weight="none" font-size="none" text-anchor="none" style="mix-blend-mode: normal" data-fill-palette-color="accent"></path></g><g transform="matrix(1,0,0,1,23.384326844919777,27.9362322842293)"><svg viewBox="0 0 70.15298053475937 61.049169656140336" height="61.049169656140336" width="70.15298053475937"><g><svg xmlns="http://www.w3.org/2000/svg" xmlns:xlink="http://www.w3.org/1999/xlink" version="1.1" x="0" y="0" viewBox="-7.105425663535107e-15 3.115000009536743 48 41.770999908447266" enable-background="new 0 0 48 48" xml:space="preserve" height="61.049169656140336" width="70.15298053475937" class="icon-b-0" data-fill-palette-color="quaternary" id="b-0"><g fill="#ffffff" data-fill-palette-color="quaternary"><path d="M36.918 36.396H11.082C7.535 36.396 4.649 33.846 4.649 30.711V22.348H1A1 1 0 0 1 0 21.348V18.696A1 1 0 0 1 1 17.696H32.517L7.478 9.734A1 1 0 0 1 7.468 7.832L12.834 6.061C13.034 5.996 13.25 5.995 13.45 6.058L15.235 6.625C16.61 5.491 18.815 4.874 21.538 4.874 22.639 4.874 23.777 4.974 24.939 5.172 24.964 4.995 25.013 4.821 25.086 4.652 25.49 3.706 26.56 3.115 27.873 3.115 28.338 3.115 28.805 3.189 29.26 3.333 30.311 3.666 31.128 4.325 31.503 5.142 31.771 5.725 31.787 6.354 31.549 6.912A2 2 0 0 1 31.366 7.25C34.901 9.001 37.188 11.39 37.536 13.718L39.227 14.257C39.452 14.328 39.643 14.477 39.769 14.676L41.676 17.697 47 17.698A1 1 0 0 1 48 18.698V21.35A1 1 0 0 1 47 22.35H43.352V30.712C43.352 33.847 40.466 36.396 36.918 36.396M2 20.349H5.649A1 1 0 0 1 6.649 21.349V30.712C6.649 32.743 8.638 34.397 11.082 34.397H36.918C39.362 34.397 41.352 32.744 41.352 30.712V21.35A1 1 0 0 1 42.352 20.35H46V19.698H41.125A1 1 0 0 1 40.279 19.232L39.961 18.727A1 1 0 0 1 38.961 19.698H2zM11.026 8.764L39.264 17.744C39.299 17.755 39.332 17.768 39.365 17.782L38.273 16.052 36.277 15.417A1 1 0 0 1 35.582 14.42C35.655 12.733 33.378 10.102 28.886 8.338A1 1 0 0 1 29.09 6.42C29.478 6.357 29.676 6.205 29.711 6.125 29.725 6.093 29.716 6.042 29.686 5.976 29.584 5.755 29.254 5.429 28.657 5.24A2.6 2.6 0 0 0 27.875 5.115C27.322 5.115 26.981 5.31 26.926 5.441 26.905 5.491 26.949 5.636 27.114 5.812A1 1 0 0 1 26.14 7.464C24.575 7.077 22.983 6.872 21.537 6.872 19.108 6.872 17.123 7.455 16.226 8.431A1 1 0 0 1 15.187 8.707L13.152 8.061z" fill="#ffffff" data-fill-palette-color="quaternary"></path><path d="M23.919 19.557C23.456 19.557 23.041 19.234 22.941 18.764 22.674 17.5 21.436 16.582 19.998 16.582S17.32 17.5 17.053 18.764A1 1 0 1 1 15.096 18.349C15.558 16.165 17.62 14.581 19.998 14.581S24.437 16.166 24.898 18.35A1 1 0 0 1 23.919 19.557" fill="#ffffff" data-fill-palette-color="quaternary"></path><g fill="#ffffff" data-fill-palette-color="quaternary"><path d="M13.992 42.412A1 1 0 0 1 12.992 41.412V38.998A1 1 0 1 1 14.992 38.998V41.412A1 1 0 0 1 13.992 42.412" fill="#ffffff" data-fill-palette-color="quaternary"></path><path d="M17.995 42.412A1 1 0 0 1 16.995 41.412V38.136A1 1 0 1 1 18.995 38.136V41.412A1 1 0 0 1 17.995 42.412" fill="#ffffff" data-fill-palette-color="quaternary"></path><path d="M21.999 42.412A1 1 0 0 1 20.999 41.412V38.998A1 1 0 1 1 22.999 38.998V41.412A1 1 0 0 1 21.999 42.412" fill="#ffffff" data-fill-palette-color="quaternary"></path><path d="M26.002 42.412A1 1 0 0 1 25.002 41.412V38.136A1 1 0 1 1 27.002 38.136V41.412A1 1 0 0 1 26.002 42.412" fill="#ffffff" data-fill-palette-color="quaternary"></path><path d="M30.006 42.412A1 1 0 0 1 29.006 41.412V38.998A1 1 0 1 1 31.006 38.998V41.412A1 1 0 0 1 30.006 42.412" fill="#ffffff" data-fill-palette-color="quaternary"></path><path d="M34.008 42.412A1 1 0 0 1 33.008 41.412V38.136A1 1 0 1 1 35.008 38.136V41.412A1 1 0 0 1 34.008 42.412" fill="#ffffff" data-fill-palette-color="quaternary"></path></g><path d="M41.549 44.886H6.451A1 1 0 1 1 6.451 42.886H41.549A1 1 0 1 1 41.549 44.886" fill="#ffffff" data-fill-palette-color="quaternary"></path></g></svg></g></svg></g></svg></g></svg></g><g></g></svg></g><defs></defs></svg><rect width="395.52" height="221.4976298438503" fill="none" stroke="none" visibility="hidden"></rect></g></svg>