<svg width="117" height="117" viewBox="0 0 117 117" fill="none" xmlns="http://www.w3.org/2000/svg">
<g clip-path="url(#clip0_97_79)">
<g clip-path="url(#clip1_97_79)">
<path d="M35.076 116.922C15.704 116.922 0 101.218 0 81.845V35.076C0 15.704 15.704 0 35.076 0H81.845C101.217 0 116.921 15.704 116.922 35.076V81.845C116.922 101.217 101.218 116.921 81.845 116.922H35.076Z" fill="#012635"/>
<g clip-path="url(#clip2_97_79)">
<g clip-path="url(#clip3_97_79)">
<path d="M77.3407 76.5771H39.5808C34.3968 76.5771 30.1789 72.8503 30.1789 68.2684V56.0457H24.8458C24.4582 56.0457 24.0864 55.8917 23.8123 55.6176C23.5383 55.3435 23.3843 54.9718 23.3843 54.5842V50.7082C23.3843 50.3206 23.5383 49.9489 23.8123 49.6748C24.0864 49.4007 24.4582 49.2467 24.8458 49.2467H70.9085L34.3135 37.6101C34.0195 37.5162 33.7628 37.3317 33.5801 37.083C33.3974 36.8343 33.2982 36.5341 33.2965 36.2255C33.2949 35.9169 33.391 35.6157 33.5711 35.3651C33.7512 35.1144 34.0059 34.9272 34.2989 34.8303L42.1414 32.2419C42.4337 32.1469 42.7494 32.1455 43.0417 32.2375L45.6505 33.0662C47.6601 31.4089 50.8828 30.5071 54.8625 30.5071C56.4716 30.5071 58.1349 30.6532 59.8331 30.9426C59.8697 30.6839 59.9413 30.4296 60.048 30.1826C60.6384 28.8 62.2023 27.9363 64.1212 27.9363C64.8008 27.9363 65.4834 28.0444 66.1484 28.2549C67.6844 28.7416 68.8785 29.7047 69.4266 30.8988C69.8182 31.7508 69.8416 32.6701 69.4938 33.4857C69.4207 33.6585 69.3311 33.824 69.2263 33.9797C74.3928 36.5388 77.7353 40.0304 78.2439 43.4328L80.7153 44.2205C81.0442 44.3243 81.3233 44.5421 81.5075 44.8329L84.2946 49.2482L92.0757 49.2496C92.4634 49.2496 92.8351 49.4036 93.1092 49.6777C93.3833 49.9518 93.5373 50.3235 93.5373 50.7112V54.5871C93.5373 54.9747 93.3833 55.3465 93.1092 55.6206C92.8351 55.8946 92.4634 56.0486 92.0757 56.0486H86.7441V68.2699C86.7441 72.8517 82.5262 76.5771 77.3407 76.5771ZM26.3073 53.1241H31.6404C32.028 53.1241 32.3998 53.2781 32.6739 53.5522C32.9479 53.8263 33.1019 54.198 33.1019 54.5856V68.2699C33.1019 71.2382 36.0089 73.6556 39.5808 73.6556H77.3407C80.9126 73.6556 83.8211 71.2397 83.8211 68.2699V54.5871C83.8211 54.1995 83.9751 53.8277 84.2491 53.5537C84.5232 53.2796 84.895 53.1256 85.2826 53.1256H90.6142V52.1727H83.4893C83.2425 52.1728 82.9996 52.1104 82.7834 51.9913C82.5672 51.8722 82.3847 51.7003 82.2529 51.4916L81.7881 50.7535C81.7771 51.1338 81.6182 51.4947 81.3453 51.7597C81.0724 52.0247 80.707 52.1728 80.3266 52.1727H26.3073V53.1241ZM39.499 36.1924L80.7694 49.3169C80.8206 49.3329 80.8688 49.3519 80.917 49.3724L79.3211 46.844L76.4039 45.9159C76.098 45.8183 75.8328 45.6227 75.6492 45.3593C75.4656 45.096 75.3739 44.7795 75.3881 44.4588C75.4948 41.9932 72.1669 38.1479 65.6018 35.5698C65.3036 35.4529 65.052 35.2413 64.8858 34.9675C64.7196 34.6938 64.6479 34.373 64.6818 34.0545C64.7157 33.736 64.8532 33.4375 65.0733 33.2048C65.2934 32.9721 65.5838 32.8181 65.8999 32.7666C66.467 32.6745 66.7564 32.4524 66.8075 32.3355C66.828 32.2887 66.8148 32.2141 66.771 32.1177C66.6219 31.7947 66.1396 31.3182 65.2671 31.042C64.8977 30.9231 64.5122 30.8615 64.1242 30.8593C63.3159 30.8593 62.8176 31.1443 62.7372 31.3358C62.7065 31.4089 62.7708 31.6208 63.0119 31.878C63.2269 32.1086 63.3615 32.4025 63.3957 32.7159C63.43 33.0292 63.3619 33.3453 63.2018 33.6168C63.0417 33.8884 62.7981 34.1009 62.5074 34.2226C62.2166 34.3444 61.8942 34.3689 61.5884 34.2924C59.3011 33.7268 56.9744 33.4272 54.861 33.4272C51.311 33.4272 48.4099 34.2793 47.0989 35.7057C46.9105 35.9106 46.6675 36.0574 46.3985 36.1288C46.1295 36.2003 45.8456 36.1934 45.5804 36.1091L42.6062 35.165L39.499 36.1924Z" fill="white"/>
<path d="M58.3423 51.9666C57.6656 51.9666 57.0591 51.4945 56.913 50.8076C56.5227 48.9603 54.7134 47.6186 52.6117 47.6186C50.51 47.6186 48.6977 48.9603 48.3075 50.8076C48.2677 50.9954 48.1913 51.1736 48.0826 51.3318C47.9739 51.4901 47.8352 51.6254 47.6742 51.73C47.5133 51.8347 47.3333 51.9066 47.1445 51.9417C46.9558 51.9767 46.762 51.9743 46.5742 51.9345C46.3864 51.8946 46.2082 51.8182 46.05 51.7095C45.8917 51.6009 45.7564 51.4621 45.6518 51.3012C45.5471 51.1402 45.4752 50.9602 45.4401 50.7715C45.4051 50.5827 45.4075 50.3889 45.4473 50.2011C46.1226 47.0091 49.1362 44.6941 52.6117 44.6941C56.0872 44.6941 59.0994 47.0106 59.7732 50.2026C59.8182 50.4155 59.8151 50.6359 59.7641 50.8475C59.7131 51.0591 59.6155 51.2567 59.4784 51.4258C59.3412 51.5948 59.1681 51.7311 58.9715 51.8247C58.775 51.9183 58.56 51.9668 58.3423 51.9666Z" fill="white"/>
<path d="M43.8341 85.3696C43.4465 85.3696 43.0747 85.2156 42.8006 84.9415C42.5265 84.6674 42.3726 84.2957 42.3726 83.9081V80.38C42.3726 79.9924 42.5265 79.6206 42.8006 79.3465C43.0747 79.0724 43.4465 78.9185 43.8341 78.9185C44.2217 78.9185 44.5934 79.0724 44.8675 79.3465C45.1416 79.6206 45.2956 79.9924 45.2956 80.38V83.9081C45.2956 84.2957 45.1416 84.6674 44.8675 84.9415C44.5934 85.2156 44.2217 85.3696 43.8341 85.3696Z" fill="white"/>
<path d="M49.6847 85.3697C49.297 85.3697 48.9253 85.2157 48.6512 84.9416C48.3771 84.6675 48.2231 84.2958 48.2231 83.9081V79.1202C48.2231 78.7326 48.3771 78.3608 48.6512 78.0868C48.9253 77.8127 49.297 77.6587 49.6847 77.6587C50.0723 77.6587 50.444 77.8127 50.7181 78.0868C50.9922 78.3608 51.1462 78.7326 51.1462 79.1202V83.9081C51.1462 84.2958 50.9922 84.6675 50.7181 84.9416C50.444 85.2157 50.0723 85.3697 49.6847 85.3697Z" fill="white"/>
<path d="M55.5367 85.3696C55.1491 85.3696 54.7774 85.2156 54.5033 84.9415C54.2292 84.6674 54.0752 84.2957 54.0752 83.9081V80.38C54.0752 79.9924 54.2292 79.6206 54.5033 79.3465C54.7774 79.0724 55.1491 78.9185 55.5367 78.9185C55.9243 78.9185 56.2961 79.0724 56.5702 79.3465C56.8443 79.6206 56.9982 79.9924 56.9982 80.38V83.9081C56.9982 84.2957 56.8443 84.6674 56.5702 84.9415C56.2961 85.2156 55.9243 85.3696 55.5367 85.3696Z" fill="white"/>
<path d="M61.3868 85.3697C60.9992 85.3697 60.6274 85.2157 60.3534 84.9416C60.0793 84.6675 59.9253 84.2958 59.9253 83.9081V79.1202C59.9253 78.7326 60.0793 78.3608 60.3534 78.0868C60.6274 77.8127 60.9992 77.6587 61.3868 77.6587C61.7744 77.6587 62.1462 77.8127 62.4203 78.0868C62.6944 78.3608 62.8483 78.7326 62.8483 79.1202V83.9081C62.8483 84.2958 62.6944 84.6675 62.4203 84.9416C62.1462 85.2157 61.7744 85.3697 61.3868 85.3697Z" fill="white"/>
<path d="M67.2389 85.3696C66.8512 85.3696 66.4795 85.2156 66.2054 84.9415C65.9313 84.6674 65.7773 84.2957 65.7773 83.9081V80.38C65.7773 79.9924 65.9313 79.6206 66.2054 79.3465C66.4795 79.0724 66.8512 78.9185 67.2389 78.9185C67.6265 78.9185 67.9982 79.0724 68.2723 79.3465C68.5464 79.6206 68.7004 79.9924 68.7004 80.38V83.9081C68.7004 84.2957 68.5464 84.6674 68.2723 84.9415C67.9982 85.2156 67.6265 85.3696 67.2389 85.3696Z" fill="white"/>
<path d="M73.088 85.3697C72.7004 85.3697 72.3286 85.2157 72.0545 84.9416C71.7804 84.6675 71.6265 84.2958 71.6265 83.9081V79.1202C71.6265 78.7326 71.7804 78.3608 72.0545 78.0868C72.3286 77.8127 72.7004 77.6587 73.088 77.6587C73.4756 77.6587 73.8473 77.8127 74.1214 78.0868C74.3955 78.3608 74.5495 78.7326 74.5495 79.1202V83.9081C74.5495 84.2958 74.3955 84.6675 74.1214 84.9416C73.8473 85.2157 73.4756 85.3697 73.088 85.3697Z" fill="white"/>
<path d="M84.109 88.9855H32.8126C32.425 88.9855 32.0532 88.8316 31.7791 88.5575C31.5051 88.2834 31.3511 87.9116 31.3511 87.524C31.3511 87.1364 31.5051 86.7647 31.7791 86.4906C32.0532 86.2165 32.425 86.0625 32.8126 86.0625H84.109C84.4967 86.0625 84.8684 86.2165 85.1425 86.4906C85.4166 86.7647 85.5706 87.1364 85.5706 87.524C85.5706 87.9116 85.4166 88.2834 85.1425 88.5575C84.8684 88.8316 84.4967 88.9855 84.109 88.9855Z" fill="white"/>
</g>
</g>
</g>
</g>
<defs>
<clipPath id="clip0_97_79">
<rect width="116.922" height="116.922" fill="white"/>
</clipPath>
<clipPath id="clip1_97_79">
<rect width="116.922" height="116.922" fill="white"/>
</clipPath>
<clipPath id="clip2_97_79">
<rect width="70.153" height="61.0492" fill="white" transform="translate(23.3843 27.9363)"/>
</clipPath>
<clipPath id="clip3_97_79">
<rect width="70.153" height="61.0492" fill="white" transform="translate(23.3843 27.9363)"/>
</clipPath>
</defs>
</svg>
